<?xml version="1.0" standalone="no"?>
<!DOCTYPE svg PUBLIC "-//W3C//DTD SVG 20010904//EN"
 "http://www.w3.org/TR/2001/REC-SVG-20010904/DTD/svg10.dtd">
<svg version="1.0" xmlns="http://www.w3.org/2000/svg"
 width="250.000000pt" height="250.000000pt" viewBox="0 0 250.000000 250.000000"
 preserveAspectRatio="xMidYMid meet">
<metadata>
Created by potrace 1.14, written by Peter Selinger 2001-2017
</metadata>
<g transform="translate(0.000000,250.000000) scale(0.100000,-0.100000)"
fill="#000000" stroke="none">
<path d="M1070 2346 c-3 -2 -27 -7 -55 -10 -128 -17 -299 -72 -425 -136 -184
-94 -355 -270 -453 -465 -50 -100 -102 -273 -123 -405 -12 -78 -11 -389 2
-484 32 -246 141 -489 293 -656 l49 -55 32 35 c18 19 65 69 105 111 l73 76
-30 34 c-124 142 -205 333 -226 533 -7 75 -7 273 1 341 15 127 52 243 113 354
116 212 274 328 535 392 78 19 122 23 264 23 262 1 383 -21 540 -99 213 -106
374 -327 410 -563 4 -23 9 -54 11 -70 12 -71 11 -353 -1 -427 -33 -206 -97
-356 -201 -472 l-42 -47 108 -110 107 -109 25 24 c114 111 220 312 273 513 35
136 40 189 40 411 0 221 -5 282 -34 401 -78 318 -256 559 -525 708 -60 33
-181 82 -239 97 -180 45 -226 51 -422 55 -111 3 -203 3 -205 0z"/>
<path d="M1155 1832 c-77 -8 -207 -46 -281 -82 -286 -138 -431 -517 -337 -885
28 -114 95 -245 159 -313 l24 -27 105 108 c58 59 105 112 105 117 0 5 -15 30
-34 55 -57 74 -78 145 -80 260 -2 213 55 333 194 409 66 36 164 54 268 50 162
-7 236 -35 316 -124 69 -76 97 -179 92 -335 -4 -117 -29 -205 -79 -277 l-33
-48 106 -108 c80 -83 108 -106 119 -98 23 18 92 126 121 190 105 236 102 533
-9 746 -97 185 -226 285 -442 341 -74 19 -233 30 -314 21z"/>
<path d="M1160 1344 c-145 -43 -216 -226 -147 -377 33 -73 78 -114 146 -134
84 -24 152 -20 216 12 118 60 167 172 140 319 -13 66 -68 131 -142 167 -54 26
-152 32 -213 13z m169 -156 c41 -25 57 -114 31 -163 -32 -61 -137 -75 -190
-27 -60 53 -47 166 22 197 37 17 105 13 137 -7z"/>
</g>
</svg>
